<svg xmlns="http://www.w3.org/2000/svg" xmlns:xlink="http://www.w3.org/1999/xlink" width="500" zoomAndPan="magnify" viewBox="0 0 375 374.999991" height="500" preserveAspectRatio="xMidYMid meet" version="1.0"><path fill="#ffffff" d="M 361.246094 131.957031 C 371.417969 143.121094 374.601562 159.914062 370.6875 174.472656 C 370.132812 176.859375 369.382812 179.160156 368.476562 181.386719 C 374.996094 197.109375 371.699219 215.972656 361.464844 230.609375 C 362.445312 234.683594 363.183594 238.804688 363.496094 242.988281 C 364.472656 258.832031 355.617188 274.871094 341.21875 281.8125 C 337.703125 283.324219 333.988281 284.253906 330.207031 284.800781 C 326.105469 290.191406 321.703125 295.347656 317.03125 300.25 C 315.441406 306.640625 313.300781 312.859375 309.800781 318.550781 C 300.402344 334.238281 281.660156 342.90625 263.753906 343.394531 C 261.140625 343.484375 258.542969 343.21875 255.941406 343.003906 C 253.585938 344.03125 251.207031 345.003906 248.808594 345.917969 C 245.355469 348.878906 242.007812 352 238.453125 354.839844 C 227.0625 365.242188 211.398438 368.0625 196.503906 368.078125 C 187.804688 367.851562 178.8125 366.664062 171.21875 362.148438 C 161.746094 368.699219 150.359375 372.269531 138.761719 370.820312 C 128.945312 369.738281 121.222656 363.828125 117.078125 355.707031 C 114.65625 353.871094 112.230469 351.738281 109.777344 349.273438 C 108.050781 347.789062 106.269531 346.292969 104.273438 345.1875 C 95.640625 347.296875 86.929688 348.117188 77.945312 345.714844 C 58.757812 341.289062 51.453125 323.125 48.859375 305.414062 C 46.035156 302.203125 43.347656 298.859375 40.8125 295.40625 C 19.648438 288.253906 10.578125 269.171875 16.410156 246.175781 C 16.503906 245.824219 16.589844 245.484375 16.671875 245.152344 C 15.214844 239.730469 14.070312 234.230469 13.246094 228.683594 C 13.011719 228.316406 12.765625 227.925781 12.511719 227.511719 C 0.00390625 207.828125 4.386719 186.683594 17.148438 169.542969 C 18.746094 163.65625 20.675781 157.820312 22.90625 152.0625 C 21.039062 122.007812 35.671875 96.605469 65.023438 84.28125 C 68.472656 82.246094 69.402344 77.632812 71.542969 74.410156 C 76.578125 64.632812 81.621094 54.46875 90.203125 47.269531 C 97.242188 40.878906 110.488281 34.796875 122.085938 34.066406 C 122.761719 32.789062 123.449219 31.519531 124.160156 30.265625 C 128.890625 22.769531 136.589844 17.171875 145.285156 15.292969 C 151.40625 13.824219 157.601562 13.332031 163.863281 13.332031 C 171.71875 10.847656 179.382812 7.710938 187.402344 5.757812 C 199.9375 2.636719 214.011719 3.015625 225.40625 9.585938 C 229.347656 11.738281 233.03125 14.824219 234.84375 18.957031 C 240.269531 20.261719 245.632812 21.816406 250.90625 23.632812 C 253.960938 23.996094 257.007812 24.421875 259.996094 25.109375 C 274.9375 27.5 289.613281 32.726562 301.988281 41.546875 C 309.945312 47.535156 318.261719 57.105469 317.503906 67.375 C 321.585938 71.761719 325.445312 76.363281 329.0625 81.152344 C 342.183594 89.691406 354.390625 100.125 358.863281 115.449219 C 359.949219 117.632812 361.132812 124.882812 361.246094 131.957031 Z M 361.246094 131.957031 " fill-opacity="1" fill-rule="nonzero"/><path fill="#776a9e" d="M 368.472656 181.386719 C 369.378906 179.160156 370.128906 176.859375 370.683594 174.472656 C 374.597656 159.914062 371.414062 143.121094 361.246094 131.957031 C 361.132812 124.882812 359.949219 117.632812 358.859375 115.449219 C 354.386719 100.128906 342.179688 89.691406 329.058594 81.15625 C 325.441406 76.367188 321.582031 71.765625 317.5 67.375 C 318.257812 57.109375 309.9375 47.539062 301.984375 41.550781 C 289.605469 32.730469 274.933594 27.503906 259.992188 25.113281 C 257.003906 24.421875 253.957031 24 250.898438 23.636719 C 245.628906 21.820312 240.265625 20.265625 234.839844 18.957031 C 233.027344 14.828125 229.34375 11.738281 225.402344 9.589844 C 214.007812 3.019531 199.933594 2.640625 187.398438 5.761719 C 179.378906 7.714844 171.714844 10.851562 163.859375 13.335938 C 157.597656 13.335938 151.402344 13.828125 145.28125 15.292969 C 136.585938 17.175781 128.886719 22.773438 124.15625 30.269531 C 123.445312 31.523438 122.753906 32.792969 122.082031 34.070312 C 110.484375 34.800781 97.238281 40.882812 90.199219 47.273438 C 81.621094 54.472656 76.574219 64.636719 71.539062 74.414062 C 69.398438 77.636719 68.46875 82.246094 65.019531 84.285156 C 35.667969 96.609375 21.035156 122.011719 22.902344 152.066406 C 20.671875 157.824219 18.742188 163.660156 17.144531 169.550781 C 4.382812 186.6875 0 207.832031 12.507812 227.515625 C 12.761719 227.929688 13.007812 228.320312 13.242188 228.691406 C 14.0625 234.234375 15.210938 239.738281 16.667969 245.160156 C 16.585938 245.488281 16.496094 245.828125 16.40625 246.183594 C 10.570312 269.179688 19.644531 288.261719 40.808594 295.414062 C 43.34375 298.867188 46.027344 302.207031 48.851562 305.417969 C 51.449219 323.125 58.753906 341.296875 77.941406 345.722656 C 86.925781 348.121094 95.636719 347.300781 104.269531 345.191406 C 106.265625 346.296875 108.046875 347.789062 109.773438 349.277344 C 112.226562 351.738281 114.652344 353.875 117.074219 355.710938 C 121.21875 363.832031 128.941406 369.742188 138.757812 370.824219 C 140.484375 371.039062 142.203125 371.144531 143.914062 371.144531 C 153.699219 371.144531 163.152344 367.726562 171.214844 362.152344 C 178.808594 366.667969 187.800781 367.855469 196.5 368.085938 C 211.394531 368.066406 227.058594 365.246094 238.449219 354.84375 C 242.003906 352.007812 245.347656 348.886719 248.804688 345.925781 C 251.203125 345.007812 253.582031 344.039062 255.9375 343.011719 C 258.539062 343.222656 261.136719 343.488281 263.75 343.398438 C 281.65625 342.910156 300.398438 334.246094 309.796875 318.558594 C 313.296875 312.863281 315.4375 306.648438 317.03125 300.253906 C 321.703125 295.351562 326.105469 290.195312 330.203125 284.804688 C 333.988281 284.261719 337.699219 283.328125 341.214844 281.820312 C 355.613281 274.875 364.46875 258.839844 363.492188 242.992188 C 363.175781 238.8125 362.441406 234.6875 361.460938 230.617188 C 371.699219 215.976562 374.996094 197.109375 368.472656 181.386719 Z M 168.402344 82.675781 C 168.148438 82.761719 167.894531 82.851562 167.644531 82.9375 C 167.894531 82.847656 168.148438 82.757812 168.402344 82.675781 Z M 111.636719 90.867188 C 112.21875 89.789062 112.753906 88.691406 113.328125 87.609375 C 114.070312 86.214844 114.839844 84.828125 115.660156 83.476562 C 117.34375 80.710938 119.765625 78.476562 122.144531 76.3125 C 123.609375 74.980469 125.113281 73.691406 126.691406 72.488281 C 127.34375 71.988281 127.976562 71.570312 128.769531 71.3125 C 129.375 71.117188 130.003906 71.015625 130.636719 71.015625 C 130.808594 71.015625 130.976562 71.023438 131.144531 71.039062 C 132.695312 71.171875 134.164062 71.917969 135.183594 73.09375 C 136.238281 74.308594 136.769531 75.941406 136.632812 77.546875 C 136.503906 79.023438 135.78125 80.664062 134.578125 81.582031 C 132.566406 83.117188 130.671875 84.796875 128.832031 86.53125 C 127.921875 87.390625 127.042969 88.289062 126.105469 89.121094 C 125.019531 90.082031 123.839844 90.933594 122.671875 91.792969 C 121.519531 92.683594 120.394531 93.609375 119.320312 94.601562 C 119.183594 94.746094 119.046875 94.886719 118.914062 95.03125 C 118.660156 95.71875 118.238281 96.339844 117.695312 96.808594 C 116.917969 97.484375 115.910156 97.84375 114.898438 97.84375 C 114.417969 97.84375 113.9375 97.765625 113.480469 97.601562 C 112.058594 97.089844 110.992188 95.835938 110.722656 94.351562 C 110.503906 93.136719 110.84375 91.816406 111.636719 90.867188 Z M 307.429688 183.324219 C 307.386719 184.898438 307.386719 186.480469 307.246094 188.050781 C 307.121094 189.480469 306.988281 190.914062 306.863281 192.34375 C 306.761719 193.46875 306.550781 194.589844 306.386719 195.707031 C 305.988281 198.421875 305.460938 201.101562 304.925781 203.789062 C 304.679688 205.042969 304.308594 206.28125 303.996094 207.519531 C 303.675781 208.804688 303.34375 210.082031 302.960938 211.347656 C 302.582031 212.621094 302.203125 213.894531 301.820312 215.164062 C 301.441406 216.429688 300.972656 217.675781 300.546875 218.925781 C 298.894531 223.804688 296.878906 228.535156 294.726562 233.210938 C 294.121094 234.535156 293.492188 235.847656 292.828125 237.148438 C 292.289062 238.199219 291.785156 239.273438 291.199219 240.300781 C 289.855469 242.65625 288.484375 244.984375 287.078125 247.304688 C 285.667969 249.621094 284.152344 251.875 282.546875 254.058594 C 281.429688 255.578125 280.265625 257.042969 279.082031 258.507812 C 278.378906 259.382812 277.6875 260.261719 276.953125 261.105469 C 275.183594 263.140625 273.386719 265.140625 271.558594 267.125 C 270.730469 268.023438 269.832031 268.863281 268.964844 269.730469 C 267.824219 270.875 266.660156 271.992188 265.480469 273.097656 C 262.191406 276.191406 258.710938 279.09375 255.089844 281.792969 C 254.109375 282.523438 253.132812 283.257812 252.152344 283.988281 C 251.214844 284.679688 250.214844 285.300781 249.253906 285.953125 C 247.289062 287.285156 245.273438 288.542969 243.222656 289.738281 C 243.621094 289.507812 244.019531 289.277344 244.414062 289.042969 C 239.636719 291.859375 234.84375 294.640625 229.832031 297.019531 C 225.003906 299.308594 220.019531 301.214844 214.949219 302.898438 C 209.664062 304.648438 204.269531 306.023438 198.804688 307.078125 C 195.875 307.644531 192.90625 308 189.953125 308.40625 C 187.644531 308.722656 185.296875 308.878906 182.976562 309.007812 C 180.777344 309.128906 178.574219 309.199219 176.375 309.199219 C 173.03125 309.199219 169.6875 309.042969 166.359375 308.6875 C 163.5625 308.390625 160.785156 307.949219 158.023438 307.433594 C 155.152344 306.894531 152.300781 306.292969 149.480469 305.53125 C 148.167969 305.179688 146.867188 304.816406 145.570312 304.414062 C 144.277344 304.011719 143.003906 303.558594 141.722656 303.101562 C 140.652344 302.71875 139.601562 302.257812 138.542969 301.835938 C 136.9375 301.195312 135.328125 300.488281 133.789062 299.695312 C 131.089844 298.300781 128.429688 296.859375 125.851562 295.246094 C 123.578125 293.824219 121.335938 292.371094 119.125 290.847656 C 116.023438 288.714844 113.078125 286.367188 110.222656 283.917969 C 107.996094 281.988281 105.800781 280.035156 103.671875 278 C 101.808594 276.214844 100.023438 274.367188 98.265625 272.476562 C 96.570312 270.65625 94.980469 268.742188 93.390625 266.832031 C 91.585938 264.65625 89.8125 262.433594 88.195312 260.121094 C 87.117188 258.585938 86.074219 257.039062 85.046875 255.472656 C 83.800781 253.578125 82.683594 251.597656 81.546875 249.644531 C 81.414062 249.421875 81.285156 249.199219 81.15625 248.976562 C 81.148438 248.960938 81.136719 248.949219 81.128906 248.933594 C 81.132812 248.933594 81.132812 248.9375 81.132812 248.941406 C 81.132812 248.9375 81.128906 248.933594 81.128906 248.929688 C 81.128906 248.929688 81.128906 248.933594 81.128906 248.933594 C 81.128906 248.929688 81.128906 248.925781 81.125 248.921875 C 81.125 248.925781 81.128906 248.925781 81.128906 248.929688 C 81.125 248.925781 81.125 248.921875 81.121094 248.917969 C 81.105469 248.886719 81.085938 248.859375 81.070312 248.828125 C 81.042969 248.785156 81.019531 248.742188 80.996094 248.699219 C 81.015625 248.738281 81.039062 248.773438 81.058594 248.808594 C 78.605469 244.566406 76.367188 240.21875 74.289062 235.785156 C 73.128906 233.308594 72.0625 230.753906 71.09375 228.195312 C 70.234375 225.929688 69.363281 223.664062 68.648438 221.34375 C 67.894531 218.882812 67.167969 216.410156 66.503906 213.921875 C 65.765625 211.167969 65.160156 208.402344 64.625 205.609375 C 64.417969 204.539062 64.28125 203.4375 64.160156 202.359375 C 63.980469 200.71875 63.796875 199.078125 63.648438 197.433594 C 63.433594 195.003906 63.269531 192.570312 63.207031 190.128906 C 63.148438 187.757812 63.054688 185.375 63.15625 183.003906 C 63.277344 180.125 63.421875 177.257812 63.746094 174.390625 C 64.316406 169.304688 65.195312 164.222656 66.558594 159.285156 C 67.910156 154.398438 69.605469 149.566406 71.625 144.917969 C 72.675781 142.507812 73.84375 140.152344 75.136719 137.863281 C 76.386719 135.644531 77.726562 133.421875 79.394531 131.496094 C 79.6875 131.15625 79.992188 130.820312 80.289062 130.484375 C 80.714844 129.96875 81.113281 129.4375 81.492188 128.890625 C 82.449219 127.4375 83.386719 125.972656 84.386719 124.550781 C 85.371094 123.15625 87.109375 122.265625 88.777344 122.070312 C 90.445312 121.875 92.160156 122.355469 93.492188 123.382812 C 94.867188 124.441406 95.769531 126.046875 95.972656 127.769531 C 96.171875 129.492188 95.644531 131.082031 94.664062 132.480469 C 94.515625 132.691406 94.367188 132.902344 94.222656 133.113281 C 93.601562 134.054688 93.011719 135.011719 92.472656 136 C 92.316406 136.328125 92.171875 136.664062 92.039062 137.007812 C 91.648438 138.242188 91.269531 139.472656 90.789062 140.679688 C 90.3125 141.871094 89.796875 143.046875 89.292969 144.226562 C 88.328125 146.492188 87.414062 148.765625 86.578125 151.082031 C 85.121094 155.417969 83.886719 159.796875 82.9375 164.269531 C 82.308594 167.890625 81.925781 171.53125 81.703125 175.203125 C 81.640625 176.761719 81.601562 178.320312 81.621094 179.882812 C 81.636719 181.492188 81.71875 183.089844 81.816406 184.691406 C 82.101562 187.523438 82.449219 190.347656 82.875 193.164062 C 83.296875 195.949219 83.898438 198.703125 84.503906 201.449219 C 84.746094 202.375 84.972656 203.300781 85.257812 204.210938 C 85.683594 205.585938 86.121094 206.949219 86.589844 208.308594 C 87.347656 210.53125 88.164062 212.734375 88.988281 214.933594 C 89.851562 217.03125 90.730469 219.113281 91.730469 221.152344 C 92.785156 223.316406 93.914062 225.429688 95.09375 227.527344 C 96.550781 229.90625 98.042969 232.253906 99.675781 234.519531 C 101.320312 236.796875 102.988281 239.054688 104.6875 241.292969 C 106.992188 244.136719 109.371094 246.902344 111.921875 249.53125 C 113.398438 251.058594 114.894531 252.558594 116.394531 254.0625 C 117.625 255.292969 118.914062 256.460938 120.207031 257.628906 C 122.058594 259.234375 123.925781 260.828125 125.863281 262.332031 C 127.765625 263.808594 129.710938 265.207031 131.707031 266.546875 C 134.371094 268.183594 137.082031 269.71875 139.84375 271.1875 C 142.601562 272.652344 145.4375 273.933594 148.296875 275.164062 C 149.902344 275.777344 151.511719 276.367188 153.132812 276.933594 C 154.703125 277.480469 156.304688 277.917969 157.90625 278.363281 C 159.574219 278.757812 161.242188 279.125 162.929688 279.449219 C 164.769531 279.800781 166.613281 280.085938 168.464844 280.351562 C 169.855469 280.480469 171.246094 280.59375 172.640625 280.613281 C 174.0625 280.628906 175.476562 280.640625 176.898438 280.644531 C 182.542969 280.484375 188.15625 280.035156 193.765625 279.375 C 194.996094 279.195312 196.226562 279.011719 197.453125 278.800781 C 199.132812 278.519531 200.828125 278.253906 202.488281 277.882812 C 205.53125 277.207031 208.558594 276.496094 211.574219 275.707031 C 213.210938 275.207031 214.839844 274.707031 216.457031 274.140625 C 218.121094 273.558594 219.761719 272.929688 221.398438 272.28125 C 223.570312 271.347656 225.746094 270.390625 227.84375 269.3125 C 229.164062 268.632812 230.511719 267.992188 231.8125 267.277344 C 232.785156 266.738281 233.753906 266.191406 234.722656 265.644531 C 235.703125 265.035156 236.683594 264.4375 237.664062 263.832031 C 238.523438 263.300781 239.347656 262.722656 240.175781 262.152344 C 241.835938 261.015625 243.445312 259.824219 245.0625 258.628906 C 246.59375 257.410156 248.105469 256.175781 249.585938 254.898438 C 251.296875 253.417969 252.945312 251.882812 254.613281 250.359375 C 256.464844 248.515625 258.289062 246.652344 260.085938 244.75 C 261.871094 242.863281 263.527344 240.863281 265.175781 238.859375 C 266.457031 237.128906 267.742188 235.410156 268.972656 233.644531 C 270.019531 232.140625 271.03125 230.617188 272.03125 229.085938 C 272.988281 227.460938 273.988281 225.863281 274.886719 224.207031 C 276.003906 222.140625 277.085938 220.066406 278.152344 217.980469 C 278.96875 216.320312 279.675781 214.597656 280.429688 212.90625 C 281.105469 211.386719 281.667969 209.804688 282.261719 208.246094 C 282.171875 208.484375 282.078125 208.722656 281.988281 208.957031 C 282.609375 207.335938 283.109375 205.65625 283.667969 204.011719 C 284.152344 202.589844 284.515625 201.117188 284.910156 199.667969 C 284.839844 199.917969 284.769531 200.171875 284.699219 200.421875 C 285.25 198.433594 285.632812 196.398438 286.074219 194.382812 C 286.285156 193.046875 286.5 191.714844 286.714844 190.378906 C 286.839844 189.59375 286.878906 188.777344 286.960938 187.984375 C 287.027344 187.304688 287.097656 186.628906 287.167969 185.949219 C 287.210938 184.625 287.257812 183.304688 287.300781 181.980469 C 287.328125 181.28125 287.273438 180.574219 287.257812 179.878906 C 287.246094 179.324219 287.234375 178.777344 287.222656 178.226562 C 287.128906 176.707031 287.046875 175.183594 286.957031 173.664062 C 286.914062 172.878906 286.789062 172.085938 286.703125 171.304688 C 286.636719 170.695312 286.570312 170.085938 286.503906 169.476562 C 286.265625 168.035156 286.019531 166.59375 285.789062 165.148438 C 285.664062 164.359375 285.457031 163.574219 285.289062 162.789062 C 285.152344 162.132812 285.015625 161.472656 284.875 160.816406 C 284.507812 159.359375 284.15625 157.898438 283.742188 156.457031 C 283.226562 154.667969 282.707031 152.882812 282.195312 151.097656 C 281.695312 149.648438 281.195312 148.203125 280.703125 146.753906 C 280.410156 145.902344 280.011719 145.070312 279.667969 144.238281 C 279.386719 143.554688 279.101562 142.871094 278.824219 142.1875 C 278.507812 141.539062 278.191406 140.894531 277.875 140.246094 C 277.476562 139.425781 277.117188 138.5625 276.664062 137.769531 C 276.878906 138.136719 277.09375 138.5 277.308594 138.863281 C 276.695312 137.824219 276.089844 136.78125 275.484375 135.738281 C 275.1875 135.234375 274.914062 134.710938 274.59375 134.226562 C 273.636719 132.757812 272.726562 131.242188 271.707031 129.820312 C 271.730469 129.851562 271.753906 129.882812 271.777344 129.917969 C 271.679688 129.78125 271.582031 129.644531 271.484375 129.511719 C 271.726562 129.84375 271.96875 130.179688 272.210938 130.511719 C 271.46875 129.484375 270.722656 128.457031 269.980469 127.429688 C 269.675781 127.007812 269.382812 126.570312 269.054688 126.167969 C 268.042969 124.925781 267.039062 123.675781 266.023438 122.4375 C 264.996094 121.324219 263.976562 120.199219 262.957031 119.078125 C 262.425781 118.496094 261.820312 117.96875 261.257812 117.417969 C 260.734375 116.902344 260.207031 116.386719 259.679688 115.871094 C 258.585938 114.921875 257.488281 113.980469 256.386719 113.039062 C 255.828125 112.558594 255.199219 112.140625 254.609375 111.695312 C 254.207031 111.390625 253.804688 111.085938 253.402344 110.78125 C 252.199219 109.96875 251.019531 109.109375 249.789062 108.339844 C 248.429688 107.488281 247.074219 106.628906 245.707031 105.789062 C 244.570312 105.160156 243.429688 104.539062 242.292969 103.902344 C 240.882812 103.21875 239.484375 102.484375 238.046875 101.859375 C 236.640625 101.25 235.226562 100.652344 233.824219 100.035156 C 232.445312 99.53125 231.066406 99.03125 229.6875 98.523438 C 228.960938 98.257812 228.195312 98.070312 227.453125 97.847656 C 226.617188 97.59375 225.785156 97.339844 224.949219 97.089844 C 223.882812 96.824219 222.816406 96.554688 221.75 96.289062 C 220.714844 96.027344 219.667969 95.859375 218.613281 95.671875 C 217.535156 95.484375 216.460938 95.273438 215.375 95.144531 C 214.339844 95.023438 213.308594 94.90625 212.273438 94.785156 C 210.628906 94.636719 208.984375 94.53125 207.339844 94.394531 C 206.527344 94.328125 205.695312 94.355469 204.878906 94.335938 C 204.039062 94.3125 203.199219 94.292969 202.363281 94.273438 C 201.296875 94.308594 200.230469 94.351562 199.160156 94.390625 C 198.058594 94.429688 196.96875 94.550781 195.867188 94.65625 C 194.75 94.761719 193.632812 94.839844 192.523438 95.019531 C 191.316406 95.214844 190.113281 95.410156 188.910156 95.601562 C 187.246094 95.949219 185.578125 96.289062 183.90625 96.617188 C 183 96.792969 182.105469 97.097656 181.210938 97.335938 C 180.347656 97.566406 179.464844 97.757812 178.613281 98.023438 C 176.996094 98.570312 175.375 99.109375 173.753906 99.632812 C 172.054688 100.28125 170.355469 100.933594 168.65625 101.578125 C 167.746094 101.921875 166.863281 102.390625 165.976562 102.792969 C 165.140625 103.171875 164.269531 103.507812 163.453125 103.925781 C 162.03125 104.691406 160.617188 105.460938 159.199219 106.222656 C 157.78125 107.117188 156.371094 108.019531 154.960938 108.929688 C 154.242188 109.394531 153.558594 109.9375 152.863281 110.441406 C 152.214844 110.90625 151.570312 111.371094 150.921875 111.835938 C 149.535156 112.941406 148.15625 114.054688 146.773438 115.164062 C 147.070312 114.925781 147.367188 114.6875 147.664062 114.449219 C 147.085938 114.914062 146.550781 115.441406 145.996094 115.933594 C 145.285156 116.570312 144.574219 117.207031 143.859375 117.839844 C 143.253906 118.378906 142.699219 118.992188 142.125 119.5625 C 141.5 120.179688 140.882812 120.804688 140.253906 121.414062 C 139.289062 122.480469 138.316406 123.542969 137.347656 124.609375 C 136.578125 125.550781 135.792969 126.484375 135.015625 127.421875 C 134.375 128.195312 133.796875 128.988281 133.214844 129.804688 C 132.539062 130.753906 131.835938 131.679688 131.210938 132.664062 C 130.628906 133.585938 130.035156 134.503906 129.457031 135.429688 C 128.902344 136.402344 128.355469 137.378906 127.800781 138.355469 C 127.304688 139.230469 126.867188 140.128906 126.421875 141.03125 C 125.988281 141.898438 125.535156 142.761719 125.148438 143.652344 C 124.679688 144.726562 124.210938 145.800781 123.742188 146.875 C 123.300781 148.015625 122.859375 149.160156 122.417969 150.304688 C 121.929688 151.601562 121.535156 152.941406 121.09375 154.257812 C 120.882812 154.890625 120.746094 155.558594 120.574219 156.203125 C 120.359375 156.996094 120.128906 157.789062 119.953125 158.589844 C 120.039062 158.214844 120.117188 157.835938 120.199219 157.460938 C 119.917969 158.753906 119.636719 160.046875 119.355469 161.339844 C 118.691406 164.882812 118.0625 168.421875 117.867188 172.023438 C 117.832031 174.058594 117.972656 176.0625 118.144531 178.089844 C 118.347656 179.550781 118.558594 181 118.84375 182.449219 C 119.160156 184.042969 119.535156 185.621094 119.910156 187.203125 C 120.128906 187.949219 120.347656 188.695312 120.566406 189.441406 C 121.132812 191.335938 121.898438 193.183594 122.621094 195.019531 C 123.242188 196.597656 123.945312 198.136719 124.625 199.6875 C 125.121094 200.632812 125.617188 201.578125 126.109375 202.523438 C 126.367188 203.011719 126.703125 203.476562 126.992188 203.945312 C 127.308594 204.453125 127.621094 204.964844 127.9375 205.472656 C 128.808594 206.679688 129.691406 207.871094 130.625 209.035156 C 131.730469 210.40625 132.851562 211.785156 134.054688 213.074219 C 134.664062 213.695312 135.273438 214.316406 135.882812 214.933594 C 137.183594 216.117188 138.496094 217.273438 139.855469 218.386719 C 141.078125 219.386719 142.339844 220.328125 143.605469 221.269531 C 144.464844 221.882812 145.324219 222.492188 146.183594 223.101562 C 147.734375 224.191406 149.34375 225.199219 150.960938 226.183594 C 152.5625 227.152344 154.1875 228.046875 155.828125 228.941406 C 157.773438 229.863281 159.703125 230.785156 161.71875 231.542969 C 163.292969 232.054688 164.886719 232.4375 166.492188 232.824219 C 168.285156 233.175781 170.070312 233.511719 171.890625 233.707031 C 173.554688 233.8125 175.222656 233.828125 176.890625 233.851562 C 177.703125 233.863281 178.519531 233.8125 179.335938 233.773438 C 179.21875 233.777344 179.101562 233.785156 178.984375 233.789062 C 181.066406 233.589844 183.132812 233.367188 185.207031 233.089844 C 185.949219 232.949219 186.6875 232.8125 187.425781 232.675781 C 188.335938 232.507812 189.246094 232.230469 190.144531 231.980469 C 190.839844 231.75 191.53125 231.519531 192.226562 231.285156 C 193.121094 230.988281 193.988281 230.566406 194.859375 230.199219 C 195.921875 229.691406 196.984375 229.179688 198.03125 228.640625 C 198.640625 228.328125 199.253906 228.035156 199.839844 227.679688 C 200.332031 227.382812 200.824219 227.085938 201.320312 226.789062 C 201.964844 226.332031 202.609375 225.871094 203.253906 225.414062 C 203.785156 225.035156 204.296875 224.609375 204.808594 224.191406 C 205.609375 223.476562 206.414062 222.773438 207.1875 222.03125 C 208.152344 221.101562 209.082031 220.15625 209.996094 219.1875 C 210.570312 218.542969 211.089844 217.828125 211.636719 217.160156 C 211.988281 216.726562 212.320312 216.273438 212.648438 215.816406 C 213.300781 214.886719 213.976562 213.972656 214.589844 213.015625 C 215.417969 211.71875 216.207031 210.421875 216.980469 209.09375 C 217.894531 207.453125 218.703125 205.753906 219.511719 204.058594 C 220.035156 202.808594 220.554688 201.558594 221.042969 200.292969 C 221.515625 199.058594 221.9375 197.816406 222.351562 196.566406 C 222.617188 195.554688 222.878906 194.542969 223.144531 193.527344 C 223.132812 193.585938 223.121094 193.644531 223.109375 193.703125 C 223.140625 193.554688 223.167969 193.402344 223.199219 193.25 C 223.132812 193.585938 223.066406 193.921875 223.003906 194.257812 C 222.996094 194.285156 222.992188 194.3125 222.984375 194.34375 C 223.175781 193.382812 223.425781 192.414062 223.542969 191.445312 C 223.652344 190.539062 223.761719 189.632812 223.875 188.726562 C 223.960938 187.371094 224.042969 186.019531 224.09375 184.664062 C 224.148438 183.339844 224.140625 182.027344 224.125 180.707031 C 224.050781 179.226562 223.894531 177.757812 223.714844 176.289062 C 223.511719 174.84375 223.242188 173.40625 222.914062 171.984375 C 222.605469 170.824219 222.253906 169.683594 221.851562 168.554688 C 221.523438 167.757812 221.175781 166.976562 220.796875 166.203125 C 220.238281 165.234375 219.640625 164.300781 219.023438 163.363281 C 218.496094 162.648438 217.957031 161.945312 217.390625 161.257812 C 216.75 160.480469 216.085938 159.730469 215.421875 158.980469 C 214.949219 158.507812 214.476562 158.035156 214 157.5625 C 213.59375 157.152344 213.144531 156.777344 212.703125 156.402344 C 212.167969 155.996094 211.632812 155.585938 211.097656 155.175781 C 210.738281 154.898438 210.351562 154.652344 209.964844 154.40625 C 209.378906 154.074219 208.789062 153.742188 208.203125 153.40625 C 207.835938 153.199219 207.457031 153.015625 207.074219 152.839844 C 206.121094 152.429688 205.167969 152.023438 204.203125 151.640625 C 203.265625 151.269531 202.324219 150.9375 201.375 150.605469 C 200.410156 150.328125 199.449219 150.050781 198.480469 149.796875 C 197.515625 149.546875 196.554688 149.347656 195.582031 149.152344 C 194.269531 148.980469 192.964844 148.851562 191.644531 148.734375 C 190.722656 148.730469 189.800781 148.734375 188.878906 148.78125 C 188.210938 148.859375 187.554688 148.964844 186.898438 149.09375 C 185.917969 149.351562 184.957031 149.65625 183.992188 149.960938 C 183.304688 150.230469 182.621094 150.5 181.941406 150.785156 C 181.015625 151.175781 180.125 151.609375 179.230469 152.058594 C 177.964844 152.796875 176.714844 153.550781 175.539062 154.445312 C 174.808594 155.066406 174.117188 155.71875 173.472656 156.4375 C 172.617188 157.523438 171.863281 158.667969 171.144531 159.84375 C 170.625 160.808594 170.132812 161.777344 169.65625 162.761719 C 169.015625 164.441406 168.4375 166.128906 167.894531 167.84375 C 167.601562 168.960938 167.332031 170.078125 167.128906 171.222656 C 166.945312 172.855469 166.886719 174.496094 166.839844 176.136719 C 166.859375 177.785156 166.914062 179.429688 167.066406 181.070312 C 167.160156 181.730469 167.277344 182.382812 167.417969 183.03125 C 167.570312 183.5625 167.742188 184.089844 167.925781 184.613281 C 168.074219 184.976562 168.222656 185.335938 168.371094 185.699219 C 168.550781 186.144531 168.785156 186.578125 169.011719 187.007812 C 169.480469 187.773438 169.960938 188.515625 170.46875 189.257812 C 170.992188 189.894531 171.523438 190.519531 172.078125 191.136719 C 172.613281 191.628906 173.152344 192.105469 173.707031 192.574219 C 174.273438 192.972656 174.835938 193.351562 175.417969 193.71875 C 176.222656 194.164062 177.03125 194.597656 177.863281 194.984375 C 178.300781 195.152344 178.742188 195.308594 179.191406 195.449219 C 179.921875 195.621094 180.65625 195.75 181.394531 195.871094 C 181.984375 195.949219 182.574219 196.015625 183.171875 196.046875 C 183.773438 196.03125 184.371094 195.988281 184.96875 195.933594 C 185.542969 195.84375 186.109375 195.742188 186.675781 195.628906 C 187.304688 195.457031 187.921875 195.269531 188.535156 195.054688 C 188.761719 194.949219 188.988281 194.84375 189.210938 194.734375 C 189.445312 194.589844 189.671875 194.4375 189.894531 194.28125 C 190.304688 193.941406 190.699219 193.585938 191.089844 193.222656 C 191.523438 192.761719 191.941406 192.285156 192.34375 191.796875 C 193.054688 190.835938 193.707031 189.820312 194.519531 188.941406 C 194.484375 188.984375 194.445312 189.027344 194.410156 189.070312 C 194.648438 188.796875 194.882812 188.539062 195.167969 188.296875 C 196.078125 187.523438 197.378906 187.417969 198.460938 187.820312 C 199.167969 188.082031 199.671875 188.617188 200.148438 189.167969 C 200.894531 190.027344 201.289062 191.039062 201.53125 192.144531 C 201.78125 193.277344 201.632812 194.585938 201.390625 195.710938 C 201.222656 196.496094 201 197.296875 200.699219 198.042969 C 200.355469 198.894531 199.984375 199.722656 199.546875 200.527344 C 198.992188 201.539062 198.351562 202.429688 197.632812 203.332031 C 196.761719 204.425781 195.554688 205.417969 194.386719 206.207031 C 193.585938 206.746094 192.773438 207.238281 191.933594 207.714844 C 192.054688 207.644531 192.171875 207.578125 192.292969 207.511719 C 192.191406 207.566406 192.09375 207.625 191.996094 207.679688 C 192 207.675781 192.007812 207.671875 192.015625 207.667969 C 191.996094 207.679688 191.976562 207.691406 191.960938 207.699219 C 191.933594 207.714844 191.910156 207.726562 191.886719 207.742188 C 191.898438 207.734375 191.910156 207.726562 191.921875 207.71875 C 191.886719 207.738281 191.847656 207.761719 191.8125 207.78125 C 191.8125 207.78125 191.816406 207.777344 191.820312 207.777344 C 190.386719 208.570312 188.949219 209.21875 187.402344 209.792969 C 185.316406 210.5625 183.121094 210.871094 180.90625 210.96875 C 180.519531 210.984375 180.136719 210.984375 179.75 210.980469 C 179.628906 210.980469 179.507812 210.980469 179.390625 210.980469 C 177.113281 210.988281 174.910156 210.652344 172.71875 210.039062 C 170.957031 209.546875 169.289062 208.789062 167.613281 208.054688 C 166.835938 207.714844 166.054688 207.269531 165.332031 206.828125 C 164.847656 206.535156 164.339844 206.257812 163.878906 205.933594 C 162.652344 205.066406 161.398438 204.191406 160.296875 203.167969 C 159.1875 202.128906 158.042969 201.082031 157.082031 199.902344 C 156.046875 198.636719 155.078125 197.339844 154.140625 196.003906 C 153.796875 195.515625 153.515625 194.96875 153.210938 194.457031 C 152.71875 193.632812 152.285156 192.78125 151.851562 191.925781 C 151.21875 190.675781 150.691406 189.367188 150.226562 188.042969 C 149.890625 187.085938 149.644531 186.089844 149.410156 185.105469 C 149.21875 184.300781 149.035156 183.480469 148.929688 182.660156 C 148.726562 181.097656 148.515625 179.539062 148.410156 177.96875 C 148.324219 176.757812 148.296875 175.558594 148.28125 174.347656 C 148.242188 171.707031 148.433594 169.085938 148.878906 166.484375 C 149.171875 164.78125 149.648438 163.078125 150.15625 161.429688 C 150.527344 160.203125 150.921875 158.988281 151.332031 157.773438 C 151.839844 156.269531 152.503906 154.816406 153.175781 153.382812 C 154.414062 150.726562 155.992188 148.179688 157.730469 145.824219 C 160.402344 142.207031 163.8125 139.277344 167.671875 137 C 169.066406 136.175781 170.496094 135.414062 171.96875 134.734375 C 174.574219 133.53125 177.296875 132.566406 180.054688 131.769531 C 183.234375 130.847656 186.554688 130.289062 189.871094 130.253906 C 190.546875 130.246094 191.222656 130.238281 191.898438 130.230469 C 192.949219 130.21875 194.023438 130.339844 195.070312 130.398438 C 197.789062 130.554688 200.5 131.03125 203.148438 131.640625 C 205.820312 132.253906 208.457031 133.023438 211.015625 134 C 213.671875 135.011719 216.253906 136.179688 218.722656 137.585938 C 221.449219 139.136719 223.910156 141.058594 226.253906 143.132812 C 227.976562 144.65625 229.515625 146.375 231.042969 148.09375 C 232.488281 149.71875 233.84375 151.476562 235.042969 153.289062 C 236.050781 154.808594 236.984375 156.324219 237.828125 157.949219 C 239.226562 160.648438 240.296875 163.546875 241.074219 166.488281 C 241.507812 168.128906 241.847656 169.769531 242.1875 171.429688 C 242.425781 172.617188 242.546875 173.835938 242.699219 175.039062 C 242.75 175.417969 242.800781 175.792969 242.851562 176.171875 C 242.804688 175.835938 242.761719 175.496094 242.714844 175.160156 C 242.726562 175.253906 242.738281 175.347656 242.75 175.441406 C 242.738281 175.367188 242.730469 175.296875 242.722656 175.226562 C 242.976562 177.179688 243.101562 179.128906 243.144531 181.101562 C 243.144531 181.078125 243.144531 181.054688 243.144531 181.03125 C 243.140625 180.933594 243.136719 180.832031 243.136719 180.730469 C 243.136719 180.777344 243.136719 180.824219 243.140625 180.871094 C 243.136719 180.796875 243.136719 180.71875 243.136719 180.640625 C 243.167969 182.109375 243.203125 183.566406 243.152344 185.03125 C 243.109375 186.273438 243.050781 187.507812 242.96875 188.75 C 242.867188 190.34375 242.703125 191.917969 242.519531 193.503906 C 242.382812 194.671875 242.117188 195.824219 241.894531 196.980469 C 241.597656 198.535156 241.261719 200.117188 240.78125 201.628906 C 240.320312 203.082031 239.90625 204.566406 239.371094 205.992188 C 238.375 208.640625 237.339844 211.261719 236.144531 213.828125 C 235.074219 216.125 233.855469 218.328125 232.609375 220.53125 C 232.777344 220.238281 232.945312 219.945312 233.105469 219.652344 C 232.777344 220.238281 232.449219 220.824219 232.117188 221.410156 C 232.261719 221.144531 232.414062 220.882812 232.558594 220.621094 C 232.570312 220.601562 232.582031 220.582031 232.59375 220.5625 C 232.59375 220.554688 232.601562 220.550781 232.601562 220.542969 C 232.605469 220.539062 232.605469 220.535156 232.609375 220.53125 C 232.605469 220.535156 232.605469 220.539062 232.601562 220.542969 C 232.605469 220.542969 232.605469 220.539062 232.605469 220.539062 C 231.496094 222.503906 230.230469 224.351562 228.941406 226.195312 C 227.359375 228.460938 225.683594 230.660156 223.804688 232.679688 C 224.09375 232.367188 224.386719 232.054688 224.679688 231.742188 C 224.179688 232.277344 223.679688 232.816406 223.175781 233.355469 C 223.261719 233.269531 223.339844 233.179688 223.421875 233.09375 C 223.292969 233.234375 223.160156 233.371094 223.03125 233.511719 C 223.191406 233.339844 223.351562 233.167969 223.511719 232.996094 C 222.691406 233.875 221.878906 234.734375 221.007812 235.574219 C 220.351562 236.207031 219.6875 236.824219 219.007812 237.429688 C 217.347656 238.910156 215.636719 240.335938 213.816406 241.617188 C 212.773438 242.351562 211.726562 243.0625 210.628906 243.714844 C 209.871094 244.164062 209.125 244.644531 208.335938 245.039062 C 206.222656 246.101562 204.09375 247.105469 201.945312 248.09375 C 202.253906 247.949219 202.566406 247.804688 202.875 247.664062 C 200.175781 248.90625 197.359375 249.953125 194.492188 250.726562 C 193.289062 251.050781 192.101562 251.378906 190.886719 251.625 C 189.324219 251.945312 187.765625 252.238281 186.195312 252.484375 C 184.945312 252.675781 183.707031 252.847656 182.453125 252.992188 C 181.195312 253.136719 179.945312 253.207031 178.679688 253.277344 C 177.085938 253.363281 175.507812 253.367188 173.914062 253.359375 C 172.765625 253.355469 171.617188 253.296875 170.472656 253.203125 C 168.910156 253.070312 167.332031 252.933594 165.792969 252.613281 C 164.214844 252.285156 162.617188 251.988281 161.058594 251.585938 C 160.3125 251.394531 159.566406 251.203125 158.824219 251.007812 C 157.195312 250.589844 155.597656 249.980469 154.039062 249.363281 C 151.855469 248.492188 149.78125 247.382812 147.703125 246.296875 C 146.632812 245.738281 145.605469 245.128906 144.574219 244.511719 C 142.273438 243.136719 140.039062 241.648438 137.878906 240.066406 C 135.894531 238.613281 133.914062 237.160156 132.007812 235.609375 C 130.085938 234.050781 128.144531 232.503906 126.335938 230.8125 C 125.15625 229.707031 123.953125 228.621094 122.832031 227.453125 C 121.960938 226.546875 121.042969 225.664062 120.21875 224.710938 C 119.378906 223.746094 118.515625 222.800781 117.707031 221.808594 C 116.925781 220.855469 116.09375 219.921875 115.359375 218.925781 C 114.402344 217.628906 113.363281 216.355469 112.503906 214.988281 C 112.125 214.390625 111.742188 213.792969 111.363281 213.199219 C 111.050781 212.710938 110.699219 212.226562 110.421875 211.71875 C 109.769531 210.519531 109.125 209.316406 108.476562 208.117188 C 107.671875 206.628906 107.03125 205.03125 106.335938 203.488281 C 105.320312 201.253906 104.503906 198.917969 103.664062 196.613281 C 102.703125 193.960938 102.023438 191.199219 101.382812 188.457031 C 101.09375 187.222656 100.863281 185.976562 100.621094 184.730469 C 100.382812 183.492188 100.25 182.230469 100.082031 180.980469 C 99.878906 179.445312 99.789062 177.898438 99.671875 176.351562 C 99.574219 175.050781 99.59375 173.738281 99.628906 172.4375 C 99.679688 170.652344 99.753906 168.835938 100.015625 167.066406 C 100.503906 163.769531 101 160.464844 101.75 157.210938 C 102.058594 155.882812 102.367188 154.550781 102.671875 153.222656 C 102.957031 152 103.347656 150.789062 103.6875 149.582031 C 103.996094 148.476562 104.40625 147.398438 104.777344 146.3125 C 105.292969 144.808594 105.867188 143.332031 106.449219 141.855469 C 106.898438 140.710938 107.347656 139.570312 107.847656 138.449219 C 108.351562 137.324219 108.8125 136.171875 109.371094 135.074219 C 110.042969 133.757812 110.710938 132.4375 111.378906 131.117188 C 111.96875 129.945312 112.6875 128.824219 113.339844 127.691406 C 114.058594 126.445312 114.828125 125.238281 115.609375 124.03125 C 116.234375 123.070312 116.839844 122.097656 117.511719 121.167969 C 118.351562 120.007812 119.1875 118.851562 120.03125 117.695312 C 120.308594 117.316406 120.636719 116.96875 120.9375 116.613281 C 121.539062 115.890625 122.140625 115.171875 122.742188 114.449219 C 124.746094 112.050781 126.875 109.734375 129.101562 107.542969 C 131.414062 105.269531 133.753906 103.003906 136.277344 100.957031 C 136.214844 101.007812 136.15625 101.054688 136.09375 101.105469 C 136.09375 101.101562 136.09375 101.101562 136.097656 101.101562 C 137.367188 100.082031 138.636719 99.0625 139.910156 98.042969 C 141.476562 96.785156 143.152344 95.65625 144.785156 94.484375 C 146.023438 93.59375 147.34375 92.808594 148.625 91.988281 C 149.863281 91.195312 151.140625 90.492188 152.429688 89.796875 C 153.785156 89.046875 155.140625 88.257812 156.546875 87.613281 C 158.050781 86.917969 159.558594 86.226562 161.0625 85.53125 C 161.976562 85.109375 162.929688 84.769531 163.863281 84.402344 C 165.085938 83.921875 166.300781 83.417969 167.53125 82.972656 C 167.445312 83.003906 167.363281 83.035156 167.273438 83.0625 C 167.367188 83.03125 167.460938 82.996094 167.558594 82.964844 C 167.546875 82.96875 167.539062 82.972656 167.53125 82.972656 C 167.539062 82.972656 167.550781 82.96875 167.558594 82.964844 C 167.582031 82.957031 167.605469 82.949219 167.628906 82.941406 C 168.417969 82.667969 169.207031 82.394531 170 82.125 C 171.566406 81.582031 173.132812 81.011719 174.726562 80.566406 C 176.273438 80.128906 177.824219 79.699219 179.371094 79.265625 C 180.585938 78.925781 181.851562 78.71875 183.085938 78.453125 C 184.4375 78.15625 185.789062 77.898438 187.148438 77.660156 C 186.964844 77.691406 186.785156 77.722656 186.601562 77.753906 C 187.753906 77.550781 188.902344 77.351562 190.054688 77.148438 C 191.324219 76.925781 192.582031 76.792969 193.863281 76.65625 C 194.796875 76.554688 195.738281 76.402344 196.679688 76.359375 C 197.960938 76.296875 199.246094 76.238281 200.527344 76.175781 C 202.976562 76.058594 205.421875 76.125 207.875 76.160156 C 208.722656 76.175781 209.574219 76.269531 210.417969 76.332031 C 211.710938 76.421875 213 76.507812 214.289062 76.648438 C 213.976562 76.617188 213.664062 76.582031 213.351562 76.546875 C 214.816406 76.703125 216.28125 76.867188 217.746094 77.027344 C 219.222656 77.191406 220.667969 77.433594 222.132812 77.6875 C 223.175781 77.863281 224.203125 78.039062 225.230469 78.289062 C 226.582031 78.621094 227.933594 78.957031 229.285156 79.285156 C 231.972656 79.9375 234.625 80.777344 237.222656 81.714844 C 238.625 82.222656 240.039062 82.699219 241.410156 83.277344 C 242.804688 83.867188 244.195312 84.460938 245.585938 85.054688 C 246.617188 85.492188 247.617188 85.992188 248.632812 86.46875 C 249.582031 86.917969 250.515625 87.367188 251.4375 87.871094 C 252.855469 88.640625 254.320312 89.363281 255.699219 90.203125 C 256.957031 90.96875 258.210938 91.738281 259.464844 92.507812 C 261.722656 93.890625 263.882812 95.421875 266.011719 96.988281 C 266.921875 97.65625 267.855469 98.296875 268.71875 99.023438 C 269.792969 99.925781 270.867188 100.832031 271.941406 101.734375 C 273.195312 102.789062 274.351562 103.996094 275.539062 105.121094 C 276.269531 105.808594 276.953125 106.515625 277.640625 107.242188 C 278.691406 108.351562 279.761719 109.4375 280.753906 110.59375 C 281.703125 111.703125 282.648438 112.816406 283.597656 113.929688 C 284.238281 114.675781 284.816406 115.472656 285.410156 116.257812 C 286.289062 117.417969 287.1875 118.5625 288.019531 119.753906 C 288.875 120.972656 289.726562 122.195312 290.578125 123.417969 C 291.179688 124.285156 291.707031 125.210938 292.261719 126.113281 C 292.972656 127.265625 293.707031 128.410156 294.335938 129.609375 C 295.007812 130.898438 295.679688 132.1875 296.351562 133.476562 C 296.664062 134.070312 296.910156 134.714844 297.183594 135.328125 C 297.523438 136.097656 297.867188 136.867188 298.207031 137.636719 C 298.59375 138.511719 298.988281 139.375 299.316406 140.273438 C 299.832031 141.679688 300.339844 143.089844 300.851562 144.496094 C 301.363281 145.898438 301.777344 147.339844 302.21875 148.765625 C 302.921875 151.039062 303.542969 153.332031 304.171875 155.628906 C 304.613281 157.242188 304.925781 158.90625 305.289062 160.539062 C 305.519531 161.554688 305.691406 162.578125 305.867188 163.605469 C 306.113281 165.054688 306.359375 166.492188 306.527344 167.953125 C 306.683594 169.308594 306.839844 170.664062 306.992188 172.023438 C 307.132812 173.269531 307.144531 174.546875 307.21875 175.800781 C 307.304688 177.234375 307.335938 178.667969 307.382812 180.101562 C 307.425781 181.179688 307.460938 182.246094 307.429688 183.324219 Z M 307.429688 183.324219 " fill-opacity="1" fill-rule="nonzero"/><path fill="#776a9e" d="M 81.117188 248.90625 C 81.117188 248.910156 81.121094 248.914062 81.121094 248.917969 C 81.125 248.921875 81.125 248.921875 81.125 248.925781 C 81.121094 248.917969 81.117188 248.914062 81.117188 248.90625 Z M 81.117188 248.90625 " fill-opacity="1" fill-rule="nonzero"/><path fill="#776a9e" d="M 81.070312 248.828125 C 81.085938 248.851562 81.101562 248.878906 81.117188 248.90625 C 81.097656 248.875 81.078125 248.839844 81.058594 248.808594 C 81.0625 248.816406 81.066406 248.820312 81.070312 248.828125 Z M 81.070312 248.828125 " fill-opacity="1" fill-rule="nonzero"/><path fill="#776a9e" d="M 223.53125 232.988281 C 223.527344 232.992188 223.523438 232.992188 223.523438 232.996094 C 223.523438 232.992188 223.527344 232.992188 223.53125 232.988281 Z M 223.53125 232.988281 " fill-opacity="1" fill-rule="nonzero"/><path fill="#776a9e" d="M 191.933594 207.722656 C 191.945312 207.714844 191.957031 207.707031 191.96875 207.703125 C 191.980469 207.695312 191.992188 207.6875 192.003906 207.679688 C 191.980469 207.695312 191.957031 207.707031 191.933594 207.722656 Z M 191.933594 207.722656 " fill-opacity="1" fill-rule="nonzero"/><path fill="#776a9e" d="M 223.644531 232.867188 C 223.613281 232.898438 223.585938 232.929688 223.558594 232.957031 C 223.550781 232.96875 223.539062 232.976562 223.53125 232.988281 C 223.570312 232.949219 223.605469 232.90625 223.644531 232.867188 Z M 223.644531 232.867188 " fill-opacity="1" fill-rule="nonzero"/><path fill="#776a9e" d="M 191.882812 207.75 C 191.867188 207.757812 191.851562 207.765625 191.835938 207.777344 C 191.855469 207.765625 191.875 207.753906 191.894531 207.742188 C 191.890625 207.746094 191.886719 207.746094 191.882812 207.75 Z M 191.882812 207.75 " fill-opacity="1" fill-rule="nonzero"/><path fill="#776a9e" d="M 191.867188 207.757812 C 191.871094 207.753906 191.875 207.75 191.882812 207.75 C 191.902344 207.738281 191.921875 207.726562 191.941406 207.714844 C 191.917969 207.730469 191.890625 207.746094 191.867188 207.757812 Z M 191.867188 207.757812 " fill-opacity="1" fill-rule="nonzero"/><path fill="#776a9e" d="M 242.699219 174.996094 C 242.695312 174.976562 242.695312 174.960938 242.691406 174.941406 C 242.695312 174.949219 242.695312 174.960938 242.695312 174.964844 C 242.695312 174.976562 242.699219 174.984375 242.699219 174.996094 Z M 242.699219 174.996094 " fill-opacity="1" fill-rule="nonzero"/></svg>